# Blender v2.77 (sub 0) OBJ File: ''
# www.blender.org
mtllib HexagonNew3.8.mtl
o Cylinder.003
v 0.027897 -1.888064 -0.957154
v 0.027897 5.711936 -0.957153
v 0.893923 5.711936 -0.457153
v 0.893923 -1.888064 -0.457154
v 0.893922 5.711936 0.542847
v 0.893922 -1.888064 0.542846
v 0.027897 5.711936 1.042847
v 0.027897 -1.888064 1.042846
v -0.838128 5.711936 0.542847
v -0.838128 -1.888064 0.542846
v -0.838128 5.711936 -0.457153
v -0.838128 -1.888064 -0.457154
vt 0.6596 0.3299
vt 0.6596 0.6544
vt 0.4974 0.6544
vt 0.4974 0.3299
vt 0.3352 0.6544
vt 0.3352 0.3299
vt 0.1729 0.6544
vt 0.1729 0.3299
vt 0.0107 0.6544
vt 0.0107 0.3299
vt 0.7407 0.7949
vt 0.6596 0.9353
vt 0.4974 0.9353
vt 0.4163 0.7949
vt 0.9841 0.3299
vt 0.9841 0.6544
vt 0.8219 0.6544
vt 0.8219 0.3299
vt 0.4163 0.1894
vt 0.4974 0.0489
vt 0.6596 0.0489
vt 0.7407 0.1894
vn 0.5000 0.0000 -0.8660
vn 1.0000 0.0000 0.0000
vn 0.5000 -0.0000 0.8660
vn -0.5000 -0.0000 0.8660
vn 0.0000 1.0000 0.0000
vn -1.0000 0.0000 0.0000
vn -0.5000 0.0000 -0.8660
vn 0.0000 -1.0000 -0.0000
usemtl None.001
s 1
f 1/1/1 2/2/1 3/3/1 4/4/1
f 4/4/2 3/3/2 5/5/2 6/6/2
f 6/6/3 5/5/3 7/7/3 8/8/3
f 8/8/4 7/7/4 9/9/4 10/10/4
f 3/3/5 2/2/5 11/11/5 9/12/5 7/13/5 5/14/5
f 10/15/6 9/16/6 11/17/6 12/18/6
f 12/18/7 11/17/7 2/2/7 1/1/7
f 1/1/8 4/4/8 6/19/8 8/20/8 10/21/8 12/22/8
